# xmcd
#
# Track frame offsets:
# 150
# 11126
# 28734
# 39191
# 59381
# 81889
# 101097
# 114263
# 154834
# 169466
# 192442
# 207571
# 234900
# 255488
# 270500
# 294475
#
# Disc length: 4115 seconds
#
#
# Revision: 36
# Processed by: cddbd v1.5.2PL0 Copyright (c) Steve Scherf et al.
# Submitted via: FreeRIP 2.951 
#
DISCID=db101110
DTITLE=Legião Urbana - Mais Do Mesmo
DYEAR=1998
DGENRE=Rhythmic Soul
TTITLE0=Será
TTITLE1=Ainda é cedo
TTITLE2=Geração coca-cola
TTITLE3=Eduardo e Mônica
TTITLE4=Tempo perdido
TTITLE5=Índios
TTITLE6=Que pais é este
TTITLE7=Faroeste caboclo
TTITLE8=Há tempos
TTITLE9=Pais e filhos
TTITLE10=Meninos e meninas
TTITLE11=Vento no litoral
TTITLE12=Perfeição
TTITLE13=Giz
TTITLE14=Dezesseis
TTITLE15=Antes das seis
EXTD=
EXTT0=
EXTT1=
EXTT2=
EXTT3=
EXTT4=
EXTT5=
EXTT6=
EXTT7=
EXTT8=
EXTT9=
EXTT10=
EXTT11=
EXTT12=
EXTT13=
EXTT14=
EXTT15=
PLAYORDER=
